<svg width="48" height="48" viewBox="0 0 48 48" fill="none" xmlns="http://www.w3.org/2000/svg">
<mask id="path-1-inside-1" fill="white">
<path d="M24 42.2L21 44.8C7.8 33 1 26.8 1 19.2C1 16.8 1.8 14.6 3 12.8V14C3 23.4 10.8 30.4 24 42.2ZM27.2 34C36.6 25.4 43 19.8 43.2 14C43.2 10 40.2 7 36.2 7C33 7 30 9 29 11.8H25.2C24 9 21 7 18 7C14 7 11 10 11 14C11 19.8 17.2 25.4 26.8 34L27 34.2L27.2 34ZM36 3C42.2 3 47 7.8 47 14C47 21.4 40.2 27.6 27 39.6C13.8 27.8 7 21.6 7 14C7 7.8 11.8 3 18 3C21.4 3 24.8 4.6 27 7.2C29.2 4.6 32.6 3 36 3Z"/>
</mask>
<path d="M24 42.2L21 44.8C7.8 33 1 26.8 1 19.2C1 16.8 1.8 14.6 3 12.8V14C3 23.4 10.8 30.4 24 42.2ZM27.2 34C36.6 25.4 43 19.8 43.2 14C43.2 10 40.2 7 36.2 7C33 7 30 9 29 11.8H25.2C24 9 21 7 18 7C14 7 11 10 11 14C11 19.8 17.2 25.4 26.8 34L27 34.2L27.2 34ZM36 3C42.2 3 47 7.8 47 14C47 21.4 40.2 27.6 27 39.6C13.8 27.8 7 21.6 7 14C7 7.8 11.8 3 18 3C21.4 3 24.8 4.6 27 7.2C29.2 4.6 32.6 3 36 3Z" fill="#EF4444"/>
<path d="M24 42.2L51.5071 73.939L87.5654 42.6884L51.9915 10.8875L24 42.2ZM21 44.8L-6.99151 76.1125L20.5701 100.751L48.5071 76.5389L21 44.8ZM3 12.8H45V-125.917L-31.9461 -10.4974L3 12.8ZM27.2 34L-1.15057 3.01217L-1.83884 3.64188L-2.49848 4.30152L27.2 34ZM43.2 14L85.1751 15.4474L85.2 14.7239V14H43.2ZM29 11.8V53.8H58.5982L68.5532 25.9261L29 11.8ZM25.2 11.8L-13.4041 28.3446L-2.49464 53.8H25.2V11.8ZM26.8 34L56.4985 4.30152L55.6832 3.48624L54.8244 2.71692L26.8 34ZM27 34.2L-2.69848 63.8985L27 93.597L56.6985 63.8985L27 34.2ZM27 39.6L-0.991514 70.9125L27.2363 96.1465L55.2523 70.6775L27 39.6ZM27 7.2L-5.06222 34.3296L27 72.2213L59.0622 34.3296L27 7.2ZM-3.50707 10.4611L-6.50707 13.061L48.5071 76.5389L51.5071 73.939L-3.50707 10.4611ZM48.9915 13.4875C45.6087 10.4634 43.1592 8.26229 41.1714 6.38153C39.1582 4.47683 38.3659 3.59632 38.1658 3.35886C37.9621 3.11721 39.1718 4.46943 40.4258 7.19591C41.0884 8.6363 41.7566 10.4432 42.248 12.5781C42.7441 14.7336 43 16.9653 43 19.2H-41C-41 37.1924 -32.347 50.0381 -26.0658 57.4911C-20.3713 64.2481 -12.7666 70.9499 -6.99151 76.1125L48.9915 13.4875ZM43 19.2C43 26.2646 40.6489 32.0432 37.9461 36.0974L-31.9461 -10.4974C-37.0489 -2.84323 -41 7.3354 -41 19.2H43ZM-39 12.8V14H45V12.8H-39ZM-39 14C-39 31.9642 -30.9736 45.2192 -23.9562 53.796C-17.8142 61.3029 -9.68193 68.4257 -3.99151 73.5125L51.9915 10.8875C48.5686 7.82761 46.1257 5.63674 44.1045 3.71322C42.0823 1.78874 41.2768 0.873583 41.0562 0.604014C40.8648 0.370122 41.8993 1.5609 42.9596 4.00674C43.5111 5.27875 44.0425 6.827 44.4261 8.61454C44.812 10.4129 45 12.2296 45 14H-39ZM55.5506 64.9878C59.3057 61.5523 65.5147 56.0283 70.2582 50.6072C74.614 45.6292 84.5555 33.4136 85.1751 15.4474L1.22495 12.5526C1.44117 6.28217 3.32803 1.54731 4.75728 -1.17287C6.07132 -3.6738 7.23534 -4.9284 7.04178 -4.70719C6.90229 -4.54778 6.29796 -3.89295 4.74125 -2.41711C3.16772 -0.925327 1.40907 0.670378 -1.15057 3.01217L55.5506 64.9878ZM85.2 14C85.2 -13.196 63.396 -35 36.2 -35V49C17.004 49 1.2 33.196 1.2 14H85.2ZM36.2 -35C17.0558 -35 -2.99788 -23.4809 -10.5532 -2.32613L68.5532 25.9261C62.9979 41.4809 48.9442 49 36.2 49V-35ZM29 -30.2H25.2V53.8H29V-30.2ZM63.8041 -4.74461C56.1197 -22.6748 38.1386 -35 18 -35V49C10.2959 49 3.80153 46.5121 -1.02241 43.2961C-5.85768 40.0726 -10.4921 35.1393 -13.4041 28.3446L63.8041 -4.74461ZM18 -35C-9.19596 -35 -31 -13.196 -31 14H53C53 33.196 37.196 49 18 49V-35ZM-31 14C-31 32.329 -21.1775 44.9437 -16.5536 50.3242C-11.6197 56.0654 -5.29595 61.6357 -1.22443 65.2831L54.8244 2.71692C52.3377 0.489183 50.58 -1.09185 49.1281 -2.46383C48.4404 -3.11377 47.9473 -3.59886 47.5961 -3.95767C47.2417 -4.31967 47.1196 -4.4638 47.1536 -4.4242C47.184 -4.38889 47.4781 -4.046 47.9121 -3.42391C48.3455 -2.80278 49.0253 -1.75112 49.7483 -0.292803C51.2484 2.73316 53 7.67043 53 14H-31ZM-2.89849 63.6985L-2.69848 63.8985L56.6985 4.50152L56.4985 4.30152L-2.89849 63.6985ZM56.6985 63.8985L56.8985 63.6985L-2.49848 4.30152L-2.69848 4.50152L56.6985 63.8985ZM36 45C19.004 45 5 30.996 5 14H89C89 -15.396 65.396 -39 36 -39V45ZM5 14C5 11.6523 5.27617 9.33607 5.79526 7.1266C6.3085 4.942 6.99941 3.11456 7.66652 1.68398C8.92119 -1.00658 10.1066 -2.31434 9.83421 -1.99114C9.57602 -1.68479 8.72704 -0.746921 6.66845 1.22138C4.63322 3.16734 2.15545 5.4246 -1.25226 8.52252L55.2523 70.6775C60.9876 65.4635 68.4905 58.7566 74.0658 52.1411C80.1007 44.9803 89 32.132 89 14H5ZM54.9915 8.28746C51.6087 5.26343 49.1592 3.06229 47.1714 1.18153C45.1582 -0.723173 44.3659 -1.60368 44.1658 -1.84114C43.9621 -2.0828 45.1718 -0.730566 46.4258 1.99591C47.0884 3.43629 47.7566 5.24318 48.248 7.37807C48.7441 9.53364 49 11.7653 49 14H-35C-35 31.9924 -26.347 44.8381 -20.0658 52.2911C-14.3713 59.0481 -6.76663 65.7499 -0.991514 70.9125L54.9915 8.28746ZM49 14C49 30.996 34.996 45 18 45V-39C-11.396 -39 -35 -15.396 -35 14H49ZM18 45C8.84637 45 0.58831 41.0075 -5.06222 34.3296L59.0622 -19.9296C49.0117 -31.8075 33.9536 -39 18 -39V45ZM59.0622 34.3296C53.4117 41.0075 45.1536 45 36 45V-39C20.0464 -39 4.98831 -31.8075 -5.06222 -19.9296L59.0622 34.3296Z" fill="#EF4444" mask="url(#path-1-inside-1)"/>
</svg>
